<svg width="47" height="47" viewBox="0 0 47 47" fill="none" xmlns="http://www.w3.org/2000/svg">
<path id="Vector" d="M23.2939 -0.000336863C36.1918 -0.0948092 46.5878 10.2867 46.5878 23.1664C46.5878 36.0461 36.1918 46.4276 23.2939 46.4276C10.3961 46.4276 0 36.0461 0 23.1664C0 10.2867 10.3961 -0.000336863 23.2939 -0.000336863ZM8.90341 26.3365C8.90341 27.4439 8.99801 28.4988 9.04531 29.559C9.18722 31.8159 10.0071 33.6423 11.4525 35.0856C12.9452 36.6234 14.7742 37.2952 16.9869 37.4422C17.996 37.4894 19.105 37.5367 20.1614 37.5367H23.336C24.3451 37.5367 25.4068 37.6312 26.5105 37.5367C27.5669 37.4894 28.6759 37.4894 29.7376 37.4422C31.9503 37.3005 33.7793 36.6234 35.1774 35.0856C36.7174 33.6423 37.49 31.8159 37.5846 29.559C37.6792 27.4911 37.7265 25.3288 37.7265 23.1664C37.7265 21.004 37.6319 18.8417 37.5846 16.7738C37.5373 14.5642 36.7174 12.6904 35.1774 11.2471C33.8792 9.80379 32.0502 9.03752 29.7376 8.9378C28.5813 8.89056 27.5249 8.84333 26.4159 8.84333H20.0616C18.9526 8.84333 17.8962 8.9378 16.8345 8.9378C14.6218 9.03227 12.7927 9.80379 11.442 11.1946C9.99662 12.638 9.18197 14.4172 9.0348 16.674C8.9875 17.6345 8.9875 18.7419 8.8929 19.8441C8.84559 20.8518 8.84559 21.9592 8.84559 23.0667C8.84559 24.1741 8.8929 25.229 8.8929 26.3365H8.90341ZM11.647 16.7738C11.7416 15.2832 12.2724 14.1758 13.2342 13.0264C14.1487 12.1131 15.3996 11.6827 16.9869 11.4886C17.9014 11.4413 18.9578 11.5358 19.9722 11.4413C21.0812 11.3941 22.1376 11.3941 23.2466 11.3941C24.3556 11.3941 25.412 11.4413 26.4737 11.4413C27.5354 11.4413 28.5918 11.4413 29.5536 11.4886C31.1882 11.6303 32.4391 12.1131 33.4062 13.1208C34.4153 14.0813 34.8515 15.3304 34.9934 16.9155C35.088 18.7892 35.1353 20.8571 35.1353 23.1611C35.1353 25.4652 35.0407 27.4859 34.9934 29.5065C34.9461 31.0916 34.4626 32.2462 33.4062 33.2539C32.4444 34.2144 31.1935 34.6973 29.5536 34.839C28.5918 34.9334 27.5827 34.9807 26.521 34.9807H20.1667C19.0577 34.9807 18.0013 34.9334 17.0395 34.839C15.5941 34.7445 14.2959 34.2144 13.2868 33.2539C12.2251 32.2462 11.7468 30.9446 11.6522 29.4068C11.5051 27.6276 11.4578 25.418 11.4578 23.1087C11.4578 20.7993 11.5051 18.6894 11.6522 16.7633L11.647 16.7738ZM18.1432 28.4044C19.4887 29.8477 21.1758 30.614 23.2939 30.614C25.412 30.614 26.9993 29.8424 28.4447 28.4044C29.89 26.9663 30.6574 25.2343 30.6574 23.2609C30.6574 21.193 29.8375 19.4137 28.4447 18.0229C26.952 16.5323 25.3174 15.8133 23.2939 15.8133C21.2704 15.8133 19.6359 16.5323 18.1432 18.0229C16.7451 19.419 15.9305 21.193 15.9305 23.2609C15.9305 25.3288 16.7504 26.8666 18.1432 28.4044ZM19.9249 19.8021C20.8867 18.8889 22.043 18.4113 23.2939 18.4113C24.5448 18.4113 25.7011 18.8941 26.6629 19.8021C27.5774 20.7626 28.0084 21.87 28.0084 23.2609C28.0084 24.5572 27.5774 25.6647 26.6629 26.5307C25.7011 27.5908 24.5448 27.974 23.2939 27.974C22.043 27.974 20.8867 27.5908 19.9249 26.5307C19.0104 25.6647 18.5794 24.5625 18.5794 23.2609C18.5794 21.8648 19.0104 20.7626 19.9249 19.8021ZM30.7047 17.4928C31.9083 17.4928 32.4391 16.9155 32.4391 15.8133C32.4391 14.6114 31.9083 14.1338 30.7047 14.1338C29.5957 14.1338 29.0228 14.6166 29.0228 15.8133C29.0228 16.9207 29.6009 17.4928 30.7047 17.4928Z" fill="#F0A300"/>
</svg>
